<?xml version="1.0" standalone="no"?>
<!DOCTYPE svg PUBLIC "-//W3C//DTD SVG 20010904//EN"
 "http://www.w3.org/TR/2001/REC-SVG-20010904/DTD/svg10.dtd">
<svg version="1.0" xmlns="http://www.w3.org/2000/svg"
 width="500.000000pt" height="500.000000pt" viewBox="0 0 500.000000 500.000000"
 preserveAspectRatio="xMidYMid meet">

<g transform="translate(0.000000,500.000000) scale(0.100000,-0.100000)"
fill="#000000" stroke="none">
<path d="M1000 3515 l0 -175 55 0 c67 0 114 -18 143 -55 l22 -28 0 -761 0
-762 -21 -23 c-32 -34 -81 -51 -144 -51 l-55 0 0 -175 0 -175 450 0 450 0 0
175 0 175 -110 0 -110 0 0 777 c0 427 2 774 4 772 2 -2 120 -427 261 -944 141
-517 259 -943 262 -947 6 -11 401 -10 407 0 3 5 120 425 261 933 140 508 259
933 264 944 6 13 10 -264 10 -757 l1 -778 -115 0 -115 0 2 -172 3 -173 538 -3
537 -2 0 175 0 175 -49 0 c-75 0 -110 10 -142 42 l-29 30 0 762 0 763 22 28
c29 37 76 55 143 55 l55 0 0 175 0 175 -562 -2 -563 -3 -185 -682 c-101 -376
-187 -683 -190 -683 -3 0 -88 308 -189 685 l-184 685 -564 0 -563 0 0 -175z"/>
</g>
</svg>
